<svg width="350" height="350" viewBox="0 0 350 350" fill="none" xmlns="http://www.w3.org/2000/svg">
<path d="M0.997151 250.144L0.160088 40.1594C0.0717772 18.0059 18.0061 0 40.1598 0H210.285C232.376 0 250.285 17.9294 250.285 40.0208V210.123C250.285 232.215 232.376 250.144 210.285 250.144H0.997151Z" fill="#1F232F"/>
<path d="M310 345H105.692L104.875 139.995C104.798 120.611 120.49 104.856 139.875 104.856H310C329.327 104.856 345 120.543 345 139.877V309.979C345 329.313 329.327 345 310 345Z" fill="#779760" stroke="#1F232F" stroke-width="10"/>
<rect x="50.8547" y="73.6311" width="24.9288" height="100.865" fill="#779760"/>
<rect x="150.57" y="174.496" width="99.7151" height="25.2161" fill="#1F232F"/>
</svg>
